<svg width="17" height="28" viewBox="0 0 17 28" fill="none" xmlns="http://www.w3.org/2000/svg">
<path d="M13.7031 26.8594L1.3125 14.7656C1.01562 14.4688 0.859375 14.1094 0.859375 13.7188C0.859375 13.3125 1.03125 12.9219 1.32812 12.6719L13.7031 0.5625C13.9688 0.296875 14.3125 0.140625 14.7188 0.140625C15.5312 0.140625 16.1406 0.765625 16.1406 1.57812C16.1406 1.95312 15.9844 2.32812 15.7344 2.59375L4.35938 13.7188L15.7344 24.8438C15.9844 25.1094 16.1406 25.4688 16.1406 25.8594C16.1406 26.6719 15.5312 27.2812 14.7188 27.2812C14.3125 27.2812 13.9688 27.125 13.7031 26.8594Z" fill="#377E62"/>
</svg>
